<mxfile host="Electron" modified="2023-04-17T12:44:17.612Z" agent="Mozilla/5.0 (Windows NT 10.0; Win64; x64) AppleWebKit/537.36 (KHTML, like Gecko) draw.io/21.1.2 Chrome/106.0.5249.199 Electron/21.4.3 Safari/537.36" etag="utiFDkbWkivrwQeNpenB" version="21.1.2" type="device">
  <diagram name="Page-1" id="WSgiJEElreifeFp3XYER">
    <mxGraphModel dx="1436" dy="1056" grid="0" gridSize="10" guides="1" tooltips="1" connect="1" arrows="1" fold="1" page="0" pageScale="1" pageWidth="850" pageHeight="1100" math="0" shadow="0">
      <root>
        <mxCell id="0" />
        <mxCell id="1" parent="0" />
        <mxCell id="OQB-tG2_yCu1XSEC4fSO-1" style="edgeStyle=none;curved=1;rounded=0;orthogonalLoop=1;jettySize=auto;html=1;entryX=0.5;entryY=0;entryDx=0;entryDy=0;fontSize=12;startSize=8;endSize=8;" parent="1" source="OQB-tG2_yCu1XSEC4fSO-2" target="OQB-tG2_yCu1XSEC4fSO-3" edge="1">
          <mxGeometry relative="1" as="geometry" />
        </mxCell>
        <mxCell id="OQB-tG2_yCu1XSEC4fSO-2" value="" style="ellipse;html=1;shape=startState;fillColor=#000000;strokeColor=#242424;fontSize=16;" parent="1" vertex="1">
          <mxGeometry x="89" y="-101" width="30" height="30" as="geometry" />
        </mxCell>
        <mxCell id="OQB-tG2_yCu1XSEC4fSO-3" value="BLINK_1" style="swimlane;fontStyle=1;align=center;verticalAlign=middle;childLayout=stackLayout;horizontal=1;startSize=30;horizontalStack=0;resizeParent=0;resizeLast=1;container=0;fontColor=#333333;collapsible=0;rounded=1;arcSize=30;strokeColor=#666666;fillColor=#f5f5f5;swimlaneFillColor=#ffffc0;dropTarget=0;fontSize=16;" parent="1" vertex="1">
          <mxGeometry x="24" y="-11" width="160" height="110" as="geometry" />
        </mxCell>
        <mxCell id="OQB-tG2_yCu1XSEC4fSO-4" value="&lt;font style=&quot;font-size: 13px;&quot;&gt;ON : 100ms&lt;br&gt;OFF: 900ms&lt;/font&gt;" style="text;html=1;strokeColor=none;fillColor=none;align=center;verticalAlign=middle;spacingLeft=4;spacingRight=4;whiteSpace=wrap;overflow=hidden;rotatable=0;fontColor=#000000;fontSize=16;" parent="OQB-tG2_yCu1XSEC4fSO-3" vertex="1">
          <mxGeometry y="30" width="160" height="80" as="geometry" />
        </mxCell>
        <mxCell id="OQB-tG2_yCu1XSEC4fSO-12" style="edgeStyle=elbowEdgeStyle;rounded=0;orthogonalLoop=1;jettySize=auto;html=1;entryX=1.022;entryY=0.369;entryDx=0;entryDy=0;entryPerimeter=0;fontSize=12;startSize=8;endSize=8;exitX=0.5;exitY=0;exitDx=0;exitDy=0;" parent="1" source="OQB-tG2_yCu1XSEC4fSO-13" target="OQB-tG2_yCu1XSEC4fSO-4" edge="1">
          <mxGeometry relative="1" as="geometry">
            <Array as="points">
              <mxPoint x="290" y="79" />
            </Array>
          </mxGeometry>
        </mxCell>
        <mxCell id="OQB-tG2_yCu1XSEC4fSO-13" value="BLINK_5" style="swimlane;fontStyle=1;align=center;verticalAlign=middle;childLayout=stackLayout;horizontal=1;startSize=30;horizontalStack=0;resizeParent=0;resizeLast=1;container=0;fontColor=#333333;collapsible=0;rounded=1;arcSize=30;strokeColor=#666666;fillColor=#f5f5f5;swimlaneFillColor=#ffffc0;dropTarget=0;fontSize=16;" parent="1" vertex="1">
          <mxGeometry x="210" y="139" width="160" height="110" as="geometry" />
        </mxCell>
        <mxCell id="OQB-tG2_yCu1XSEC4fSO-14" value="&lt;font style=&quot;font-size: 13px;&quot;&gt;ON : 800ms&lt;br style=&quot;border-color: var(--border-color);&quot;&gt;OFF: 200ms&lt;/font&gt;" style="text;html=1;align=center;verticalAlign=middle;spacingLeft=4;spacingRight=4;whiteSpace=wrap;overflow=hidden;rotatable=0;fontSize=16;" parent="OQB-tG2_yCu1XSEC4fSO-13" vertex="1">
          <mxGeometry y="30" width="160" height="80" as="geometry" />
        </mxCell>
        <mxCell id="OQB-tG2_yCu1XSEC4fSO-15" value="BLINK_2" style="swimlane;fontStyle=1;align=center;verticalAlign=middle;childLayout=stackLayout;horizontal=1;startSize=30;horizontalStack=0;resizeParent=0;resizeLast=1;container=0;fontColor=#333333;collapsible=0;rounded=1;arcSize=30;strokeColor=#666666;fillColor=#f5f5f5;swimlaneFillColor=#ffffc0;dropTarget=0;fontSize=16;" parent="1" vertex="1">
          <mxGeometry x="-150" y="139" width="160" height="110" as="geometry" />
        </mxCell>
        <mxCell id="OQB-tG2_yCu1XSEC4fSO-16" value="&lt;font style=&quot;font-size: 13px;&quot;&gt;ON : 200ms&lt;br style=&quot;border-color: var(--border-color);&quot;&gt;OFF: 800ms&lt;/font&gt;" style="text;html=1;strokeColor=none;fillColor=none;align=center;verticalAlign=middle;spacingLeft=4;spacingRight=4;whiteSpace=wrap;overflow=hidden;rotatable=0;fontColor=#000000;fontSize=16;" parent="OQB-tG2_yCu1XSEC4fSO-15" vertex="1">
          <mxGeometry y="30" width="160" height="80" as="geometry" />
        </mxCell>
        <mxCell id="OQB-tG2_yCu1XSEC4fSO-17" style="edgeStyle=none;curved=1;rounded=0;orthogonalLoop=1;jettySize=auto;html=1;entryX=0.5;entryY=1;entryDx=0;entryDy=0;fontSize=12;startSize=8;endSize=8;" parent="1" source="OQB-tG2_yCu1XSEC4fSO-18" target="OQB-tG2_yCu1XSEC4fSO-14" edge="1">
          <mxGeometry relative="1" as="geometry" />
        </mxCell>
        <mxCell id="OQB-tG2_yCu1XSEC4fSO-18" value="BLINK_4" style="swimlane;fontStyle=1;align=center;verticalAlign=middle;childLayout=stackLayout;horizontal=1;startSize=30;horizontalStack=0;resizeParent=0;resizeLast=1;container=0;fontColor=#333333;collapsible=0;rounded=1;arcSize=30;strokeColor=#666666;fillColor=#f5f5f5;swimlaneFillColor=#ffffc0;dropTarget=0;fontSize=16;" parent="1" vertex="1">
          <mxGeometry x="210" y="299" width="160" height="110" as="geometry" />
        </mxCell>
        <mxCell id="OQB-tG2_yCu1XSEC4fSO-19" value="&lt;font style=&quot;font-size: 13px;&quot;&gt;ON : 500ms&lt;br style=&quot;border-color: var(--border-color);&quot;&gt;OFF: 500ms&lt;/font&gt;" style="text;html=1;strokeColor=none;fillColor=none;align=center;verticalAlign=middle;spacingLeft=4;spacingRight=4;whiteSpace=wrap;overflow=hidden;rotatable=0;fontColor=#000000;fontSize=16;" parent="OQB-tG2_yCu1XSEC4fSO-18" vertex="1">
          <mxGeometry y="30" width="160" height="80" as="geometry" />
        </mxCell>
        <mxCell id="OQB-tG2_yCu1XSEC4fSO-21" value="BLINK_3" style="swimlane;fontStyle=1;align=center;verticalAlign=middle;childLayout=stackLayout;horizontal=1;startSize=30;horizontalStack=0;resizeParent=0;resizeLast=1;container=0;fontColor=#333333;collapsible=0;rounded=1;arcSize=30;strokeColor=#666666;fillColor=#f5f5f5;swimlaneFillColor=#ffffc0;dropTarget=0;fontSize=16;" parent="1" vertex="1">
          <mxGeometry x="-150" y="299" width="160" height="110" as="geometry" />
        </mxCell>
        <mxCell id="OQB-tG2_yCu1XSEC4fSO-22" value="&lt;font style=&quot;font-size: 13px;&quot;&gt;ON : 300ms&lt;br style=&quot;border-color: var(--border-color);&quot;&gt;OFF: 700ms&lt;/font&gt;" style="text;html=1;strokeColor=none;fillColor=none;align=center;verticalAlign=middle;spacingLeft=4;spacingRight=4;whiteSpace=wrap;overflow=hidden;rotatable=0;fontColor=#000000;fontSize=16;" parent="OQB-tG2_yCu1XSEC4fSO-21" vertex="1">
          <mxGeometry y="30" width="160" height="80" as="geometry" />
        </mxCell>
        <mxCell id="OQB-tG2_yCu1XSEC4fSO-23" style="edgeStyle=none;curved=1;rounded=0;orthogonalLoop=1;jettySize=auto;html=1;exitX=0.5;exitY=1;exitDx=0;exitDy=0;fontSize=12;startSize=8;endSize=8;" parent="1" source="OQB-tG2_yCu1XSEC4fSO-16" target="OQB-tG2_yCu1XSEC4fSO-21" edge="1">
          <mxGeometry relative="1" as="geometry" />
        </mxCell>
        <mxCell id="OQB-tG2_yCu1XSEC4fSO-24" style="edgeStyle=orthogonalEdgeStyle;rounded=0;orthogonalLoop=1;jettySize=auto;html=1;entryX=0.5;entryY=0;entryDx=0;entryDy=0;fontSize=12;startSize=8;endSize=8;exitX=0.004;exitY=0.369;exitDx=0;exitDy=0;exitPerimeter=0;" parent="1" source="OQB-tG2_yCu1XSEC4fSO-4" target="OQB-tG2_yCu1XSEC4fSO-15" edge="1">
          <mxGeometry relative="1" as="geometry">
            <mxPoint x="104" y="59" as="sourcePoint" />
          </mxGeometry>
        </mxCell>
        <mxCell id="OQB-tG2_yCu1XSEC4fSO-28" value="Button1: &lt;i&gt;Press&lt;/i&gt; &lt;i&gt;1&lt;/i&gt;" style="text;html=1;strokeColor=none;fillColor=none;align=center;verticalAlign=middle;whiteSpace=wrap;rounded=0;fontSize=16;" parent="1" vertex="1">
          <mxGeometry x="-170" y="79" width="90" height="30" as="geometry" />
        </mxCell>
        <mxCell id="OQB-tG2_yCu1XSEC4fSO-29" value="Button1: &lt;i&gt;Press&lt;/i&gt;&amp;nbsp;&lt;i&gt;2&lt;/i&gt;" style="text;html=1;strokeColor=none;fillColor=none;align=center;verticalAlign=middle;whiteSpace=wrap;rounded=0;fontSize=16;" parent="1" vertex="1">
          <mxGeometry x="-210" y="259" width="90" height="30" as="geometry" />
        </mxCell>
        <mxCell id="OQB-tG2_yCu1XSEC4fSO-34" value="Button1: &lt;i&gt;Press&lt;/i&gt;&amp;nbsp;&lt;i&gt;4&lt;/i&gt;" style="text;html=1;strokeColor=none;fillColor=none;align=center;verticalAlign=middle;whiteSpace=wrap;rounded=0;fontSize=16;" parent="1" vertex="1">
          <mxGeometry x="350" y="259" width="90" height="30" as="geometry" />
        </mxCell>
        <mxCell id="OQB-tG2_yCu1XSEC4fSO-35" value="Button1: &lt;i&gt;Press&lt;/i&gt;&amp;nbsp;&lt;i&gt;5&lt;/i&gt;" style="text;html=1;strokeColor=none;fillColor=none;align=center;verticalAlign=middle;whiteSpace=wrap;rounded=0;fontSize=16;" parent="1" vertex="1">
          <mxGeometry x="300" y="79" width="90" height="30" as="geometry" />
        </mxCell>
        <mxCell id="OQB-tG2_yCu1XSEC4fSO-37" style="edgeStyle=orthogonalEdgeStyle;rounded=0;orthogonalLoop=1;jettySize=auto;html=1;fontSize=12;startSize=8;endSize=8;entryX=0.5;entryY=1;entryDx=0;entryDy=0;" parent="1" source="OQB-tG2_yCu1XSEC4fSO-22" target="OQB-tG2_yCu1XSEC4fSO-19" edge="1">
          <mxGeometry relative="1" as="geometry">
            <mxPoint x="-70" y="541" as="targetPoint" />
            <Array as="points">
              <mxPoint x="-72" y="472" />
              <mxPoint x="290" y="472" />
            </Array>
          </mxGeometry>
        </mxCell>
        <mxCell id="OQB-tG2_yCu1XSEC4fSO-39" value="Button1: &lt;i&gt;Press&lt;/i&gt;&amp;nbsp;&lt;i&gt;3&lt;/i&gt;" style="text;html=1;strokeColor=none;fillColor=none;align=center;verticalAlign=middle;whiteSpace=wrap;rounded=0;fontSize=16;" parent="1" vertex="1">
          <mxGeometry x="81" y="482" width="90" height="30" as="geometry" />
        </mxCell>
      </root>
    </mxGraphModel>
  </diagram>
</mxfile>
